<svg xmlns="http://www.w3.org/2000/svg" viewBox="0 0 402.33 357.62"><title>Recurso 1</title><g id="Capa_2" data-name="Capa 2"><g id="Capa_1-2" data-name="Capa 1"><path d="M178.81,67.05h89.41c3.77,0,7.47.16,10.54.47l.63-.47a67.06,67.06,0,0,0-134.11,0c0,1.42.07,2.8.14,4.2A134.28,134.28,0,0,1,178.81,67.05Z"/><path d="M380,156.46h-9.29a111.54,111.54,0,0,0-26.19-36.95l13.13-52.46H335.27a67.13,67.13,0,0,0-51,23.47c-2.86-.42-5.79-.7-8.8-.9s-4.82-.21-7.26-.21H178.81A107.2,107.2,0,0,0,150.52,93a111.89,111.89,0,0,0-81.23,85.77H47.5a14,14,0,0,1-14-14,13.6,13.6,0,0,1,14-14h2.79a16.76,16.76,0,0,0,0-33.52H47.5a47.5,47.5,0,1,0,0,95H67.61a111.37,111.37,0,0,0,44.15,78.23v44.7a22.33,22.33,0,0,0,22.35,22.35h22.35a22.33,22.33,0,0,0,22.35-22.35V312.92h89.41v22.35a22.33,22.33,0,0,0,22.35,22.35h22.35a22.33,22.33,0,0,0,22.35-22.35v-44.7a113,113,0,0,0,22.35-22.35H380a22.33,22.33,0,0,0,22.36-22.35V178.81A22.33,22.33,0,0,0,380,156.46Zm-140.6,62.83H208.11v31.26a6.95,6.95,0,1,1-13.89,0V219.29H163a7,7,0,0,1,0-13.9h31.27V174.13a6.95,6.95,0,1,1,13.89,0v31.26h31.26a6.95,6.95,0,0,1,0,13.9Zm56.79-18.13a16.76,16.76,0,1,1,16.76-16.76A16.73,16.73,0,0,1,296.16,201.16Z"/></g></g></svg>