<svg xmlns="http://www.w3.org/2000/svg" viewBox="0 0 412.99 367.1"><title>Recurso 2</title><g id="Capa_2" data-name="Capa 2"><g id="Capa_1-2" data-name="Capa 1"><path d="M390,160.61h-9.53a114.56,114.56,0,0,0-26.89-37.93L367.1,68.83h-23a68.9,68.9,0,0,0-52.34,24.09c-2.94-.43-5.95-.72-9-.93s-4.95-.22-7.46-.22H183.55a110.62,110.62,0,0,0-29,3.73,114.87,114.87,0,0,0-83.38,88.05H48.76a14.35,14.35,0,0,1-14.34-14.34,14,14,0,0,1,14.34-14.34h2.86a17.21,17.21,0,1,0,0-34.42H48.76a48.76,48.76,0,1,0,0,97.51H69.4a114.36,114.36,0,0,0,45.32,80.31v45.88a22.92,22.92,0,0,0,22.94,23h23a22.92,22.92,0,0,0,22.94-23V321.21h91.77v22.94a22.92,22.92,0,0,0,22.95,23h22.94a22.92,22.92,0,0,0,22.94-23V298.27a116.05,116.05,0,0,0,23-22.95H390A22.92,22.92,0,0,0,413,252.38V183.55A22.92,22.92,0,0,0,390,160.61ZM246.59,225.25H166.4a7.29,7.29,0,0,1,0-14.58h80.19a7.29,7.29,0,0,1,0,14.58ZM304,206.49a17.21,17.21,0,1,1,17.21-17.21A17.16,17.16,0,0,1,304,206.49Z"/><path d="M183.55,68.83h91.77c3.88,0,7.68.16,10.83.47l.65-.47a68.84,68.84,0,0,0-137.67,0c0,1.45.08,2.87.15,4.3A137.87,137.87,0,0,1,183.55,68.83Z"/></g></g></svg>