<svg xmlns="http://www.w3.org/2000/svg" viewBox="0 0 141.86 141.86"><defs><style>.cls-1{stroke:#000;stroke-width:11px;}.cls-1,.cls-3{stroke-miterlimit:10;}.cls-2{fill:#f9f9f9;}.cls-3{fill:none;stroke:#f9f9f9;stroke-width:3px;}</style></defs><title>Recurso 1</title><g id="Capa_2" data-name="Capa 2"><g id="Capa_1-2" data-name="Capa 1"><circle class="cls-1" cx="70.93" cy="70.93" r="65.43"/><path class="cls-2" d="M21.4,91.65V51.06H39a27.7,27.7,0,0,1,11.68,2.19,15.16,15.16,0,0,1,7.17,6.66,23.78,23.78,0,0,1,2.45,11.45,23.75,23.75,0,0,1-2.45,11.41,15.15,15.15,0,0,1-7.17,6.7A27.71,27.71,0,0,1,39,91.65Zm13-9.73h4.31a10.5,10.5,0,0,0,3.69-.59A6.38,6.38,0,0,0,45,79.62a7,7,0,0,0,1.47-2.77,13.38,13.38,0,0,0,.47-3.72V69.59a13.33,13.33,0,0,0-.47-3.72A7,7,0,0,0,45,63.1a6.38,6.38,0,0,0-2.57-1.71,10.28,10.28,0,0,0-3.69-.59H34.43Z"/><path class="cls-2" d="M71.55,91.65l-9.5-40.59H75.62l3.54,17.35c.08.31.18.79.29,1.44s.26,1.36.42,2.13.29,1.46.41,2.09h.24c.07-.35.16-.77.26-1.27s.2-1,.3-1.5.19-1,.29-1.53.19-1,.27-1.36l3.48-17.35H98l3.72,17.35c.07.39.18.92.32,1.59s.29,1.37.44,2.1.3,1.38.42,2h.23l.27-1.33c.1-.49.18-1,.26-1.5s.17-1,.27-1.5.19-.94.26-1.33l3.31-17.35h13L111,91.65H96.62l-4-19c-.08-.51-.2-1.11-.35-1.8s-.32-1.39-.48-2.1-.29-1.32-.41-1.83h-.23q-.18.72-.39,1.74c-.14.69-.28,1.38-.44,2.07s-.3,1.33-.41,1.92l-4,19Z"/><circle class="cls-3" cx="70.93" cy="70.93" r="63.02"/></g></g></svg>