<svg xmlns="http://www.w3.org/2000/svg" viewBox="0 0 358.4 470.4"><title>minus-solid</title><g id="Capa_2" data-name="Capa 2"><g id="Capa_1-2" data-name="Capa 1"><path d="M156.8,0C70.2,0,0,35.1,0,78.4s70.2,78.4,156.8,78.4,156.8-35.11,156.8-78.4S243.4,0,156.8,0ZM.18,135.45v28.87c6.48,11.61,19.62,22.94,39.2,32.73,29.22,14.61,71.27,24.33,117.6,24.33s88-9.72,117.25-24.33c19.89-9.94,33-21.46,39.37-33.25V135.45A150.7,150.7,0,0,1,284.91,154c-33.62,16.81-78.39,26.43-127.93,26.43S62.31,170.81,28.71,154A148.26,148.26,0,0,1,.18,135.45Zm0,66v30.1c6.48,11.6,19.62,22.93,39.2,32.73,29.22,14.6,71.27,24.32,117.6,24.32s88-9.71,117.25-24.32c19.89-9.95,33-21.46,39.37-33.25V201.43a150.48,150.48,0,0,1-28.69,18.38c-33.62,16.8-78.39,26.6-127.93,26.6s-94.67-9.79-128.27-26.6A148.2,148.2,0,0,1,.18,201.43Zm0,67.2v29.92c6.46,11.65,19.54,23.07,39.2,32.9,29.22,14.61,71.27,24.32,117.6,24.32a317.09,317.09,0,0,0,42.52-3,89.52,89.52,0,0,1,108.15-46,51.76,51.76,0,0,0,6-8.57V268.63A150.05,150.05,0,0,1,284.9,287c-33.61,16.81-78.38,26.6-127.93,26.6S62.31,303.81,28.7,287A147.61,147.61,0,0,1,.18,268.63ZM280,313.6A78.4,78.4,0,1,0,358.4,392,78.4,78.4,0,0,0,280,313.6ZM0,335.83V347.2c0,43.31,70.23,78.4,156.8,78.4A305.43,305.43,0,0,0,196,423a86,86,0,0,1-4.55-43.93c-11.18,1.09-22.66,1.75-34.48,1.75-49.54,0-94.66-9.79-128.27-26.6A148.51,148.51,0,0,1,0,335.83Zm240.8,45h78.4a11.2,11.2,0,1,1,0,22.39H240.8a11.2,11.2,0,1,1,0-22.39Z"/></g></g></svg>